<?xml version="1.0" encoding="UTF-8" standalone="no"?>
<!-- Created with Inkscape (http://www.inkscape.org/) -->

<svg
   version="1.1"
   id="svg1"
   width="2931.561"
   height="2932.5957"
   viewBox="0 0 2931.561 2932.5957"
   xml:space="preserve"
   xmlns="http://www.w3.org/2000/svg"
   xmlns:svg="http://www.w3.org/2000/svg"><defs
     id="defs1" /><g
     id="g1"
     transform="translate(-7553.2573,-5696.0449)"><path
       style="fill:#c83737;fill-opacity:1;fill-rule:evenodd;stroke:#ffffff;stroke-width:1.2;stroke-dasharray:none;paint-order:stroke markers fill"
       d="M 8618.6679,5699.5331 7555.4649,6764.3 l 600.0195,167.0747 z"
       id="path1" /><path
       style="fill:#c83737;fill-opacity:1;fill-rule:evenodd;stroke:#ffffff;stroke-width:1.2;stroke-dasharray:none;paint-order:stroke markers fill"
       d="m 8622.1086,5704.933 -455.8349,1227.2396 732.2266,-198.0468 z"
       id="path17" /><path
       style="fill:#c83737;fill-opacity:1;fill-rule:evenodd;stroke:#ffffff;stroke-width:1.2;stroke-dasharray:none;paint-order:stroke markers fill"
       d="m 8631.4756,5702.6041 276.784,1028.167 736.4604,-198.5121 z"
       id="path18" /><path
       style="fill:#c83737;fill-opacity:1;fill-rule:evenodd;stroke:#ffffff;stroke-width:1.2;stroke-dasharray:none;paint-order:stroke markers fill"
       d="m 8636.2635,5696.6237 1444.3175,392.9903 -424.6082,434.1697 z"
       id="path19" /><path
       style="fill:#008000;fill-opacity:1;fill-rule:evenodd;stroke:#ffffff;stroke-width:1.2;stroke-dasharray:none"
       d="M 10095.031,6097.1206 10484.04,7543.0843 9665.0873,6531.7529 Z"
       id="path20" /><path
       style="fill:#000000;fill-rule:evenodd;stroke:#ffffff;stroke-width:1.2;stroke-dasharray:none"
       d="M 10482.245,7550.5421 9656.6423,6536.4239 9381.2393,7553.5231 Z"
       id="path21" /><path
       style="fill:#000000;fill-rule:evenodd;stroke:#ffffff;stroke-width:1.2;stroke-dasharray:none"
       d="m 9648.6916,6538.8191 -282.1053,1015.3061 -238.7588,-3.8464 -217.5832,-809.5757 c 245.4125,-67.1096 493.2847,-133.2515 738.4473,-201.884 z"
       id="path22" /><path
       style="fill:#008000;fill-opacity:1;fill-rule:evenodd;stroke:#ffffff;stroke-width:1.2;stroke-dasharray:none"
       d="m 8154.4202,6939.454 -600.3157,-165.9007 385.8021,1458.0465 z"
       id="path23" /><path
       style="fill:#000000;fill-rule:evenodd;stroke:#ffffff;stroke-width:1.2;stroke-dasharray:none"
       d="m 8161.0839,6943.2865 -213.2672,1288.6458 954.9006,-554.6082 z"
       id="path24" /><path
       style="fill:#000000;fill-rule:evenodd;stroke:#ffffff;stroke-width:1.2;stroke-dasharray:none"
       d="m 8901.6253,6741.8406 -735.7768,196.8193 752.0366,733.8448 200.6153,-118.7342 z"
       id="path25" /><path
       style="fill:#c83737;fill-opacity:1;fill-rule:evenodd;stroke:#ffffff;stroke-width:1.2;stroke-dasharray:none;paint-order:stroke markers fill"
       d="m 7952.0159,8237.2508 958.7807,-552.538 329.5006,321.5809 z"
       id="path26" /><path
       style="fill:#c83737;fill-opacity:1;fill-rule:evenodd;stroke:#ffffff;stroke-width:1.2;stroke-dasharray:none;paint-order:stroke markers fill"
       d="m 9410.8842,8627.7948 -167.1616,-614.881 -1286.9215,229.8057 z"
       id="path27" /><path
       style="fill:#c83737;fill-opacity:1;fill-rule:evenodd;stroke:#ffffff;stroke-width:1.2;stroke-dasharray:none;paint-order:stroke markers fill"
       d="m 8921.9229,7677.9858 203.1637,-118.1204 240.0602,1.3455 -115.8652,441.4696 z"
       id="path28" /><path
       style="fill:#c83737;fill-opacity:1;fill-rule:evenodd;stroke:#ffffff;stroke-width:1.2;stroke-linecap:round;stroke-linejoin:miter;stroke-dasharray:none;paint-order:stroke fill markers"
       d="m 10483.949,7556.4276 -1104.0986,3.7121 -124.7103,443.2055 z"
       id="path29" /><path
       style="fill:#c83737;fill-opacity:1;fill-rule:evenodd;stroke:#ffffff;stroke-width:1.2;stroke-dasharray:none;paint-order:stroke markers fill"
       d="m 10484.394,7560.14 -1232.161,450.5405 165.6227,615.2693 z"
       id="path30" /></g></svg>
